<mxfile host="Electron" modified="2024-01-09T04:59:58.656Z" agent="Mozilla/5.0 (Windows NT 10.0; Win64; x64) AppleWebKit/537.36 (KHTML, like Gecko) draw.io/22.1.2 Chrome/114.0.5735.289 Electron/25.9.4 Safari/537.36" etag="zPFLOCwNM7cffC8ytJmj" version="22.1.2" type="device">
  <diagram name="Page-1" id="q15t_rrf190IeYbLZCsO">
    <mxGraphModel dx="1418" dy="838" grid="1" gridSize="10" guides="1" tooltips="1" connect="1" arrows="1" fold="1" page="1" pageScale="1" pageWidth="1200" pageHeight="1920" math="0" shadow="0">
      <root>
        <mxCell id="0" />
        <mxCell id="1" parent="0" />
        <mxCell id="RVPW-4uMlvpxUktAm4jy-1" value="Registered User" style="swimlane;fontStyle=0;childLayout=stackLayout;horizontal=1;startSize=26;fillColor=none;horizontalStack=0;resizeParent=1;resizeParentMax=0;resizeLast=0;collapsible=1;marginBottom=0;whiteSpace=wrap;html=1;" parent="1" vertex="1">
          <mxGeometry x="560" y="410" width="140" height="130" as="geometry" />
        </mxCell>
        <mxCell id="RVPW-4uMlvpxUktAm4jy-2" value="login" style="text;strokeColor=none;fillColor=none;align=left;verticalAlign=top;spacingLeft=4;spacingRight=4;overflow=hidden;rotatable=0;points=[[0,0.5],[1,0.5]];portConstraint=eastwest;whiteSpace=wrap;html=1;" parent="RVPW-4uMlvpxUktAm4jy-1" vertex="1">
          <mxGeometry y="26" width="140" height="26" as="geometry" />
        </mxCell>
        <mxCell id="RVPW-4uMlvpxUktAm4jy-3" value="password" style="text;strokeColor=none;fillColor=none;align=left;verticalAlign=top;spacingLeft=4;spacingRight=4;overflow=hidden;rotatable=0;points=[[0,0.5],[1,0.5]];portConstraint=eastwest;whiteSpace=wrap;html=1;" parent="RVPW-4uMlvpxUktAm4jy-1" vertex="1">
          <mxGeometry y="52" width="140" height="26" as="geometry" />
        </mxCell>
        <mxCell id="RVPW-4uMlvpxUktAm4jy-4" value="business plan" style="text;strokeColor=none;fillColor=none;align=left;verticalAlign=top;spacingLeft=4;spacingRight=4;overflow=hidden;rotatable=0;points=[[0,0.5],[1,0.5]];portConstraint=eastwest;whiteSpace=wrap;html=1;" parent="RVPW-4uMlvpxUktAm4jy-1" vertex="1">
          <mxGeometry y="78" width="140" height="26" as="geometry" />
        </mxCell>
        <mxCell id="RVPW-4uMlvpxUktAm4jy-22" value="invited_by" style="text;strokeColor=none;fillColor=none;align=left;verticalAlign=top;spacingLeft=4;spacingRight=4;overflow=hidden;rotatable=0;points=[[0,0.5],[1,0.5]];portConstraint=eastwest;whiteSpace=wrap;html=1;" parent="RVPW-4uMlvpxUktAm4jy-1" vertex="1">
          <mxGeometry y="104" width="140" height="26" as="geometry" />
        </mxCell>
        <mxCell id="RVPW-4uMlvpxUktAm4jy-86" value="" style="endArrow=none;html=1;rounded=0;endFill=0;edgeStyle=orthogonalEdgeStyle;entryX=0;entryY=0.5;entryDx=0;entryDy=0;exitX=0;exitY=0.5;exitDx=0;exitDy=0;" parent="RVPW-4uMlvpxUktAm4jy-1" source="RVPW-4uMlvpxUktAm4jy-2" target="RVPW-4uMlvpxUktAm4jy-22" edge="1">
          <mxGeometry relative="1" as="geometry">
            <mxPoint x="-170" y="180" as="sourcePoint" />
            <mxPoint x="-10" y="180" as="targetPoint" />
            <Array as="points">
              <mxPoint x="-100" y="39" />
              <mxPoint x="-100" y="117" />
            </Array>
          </mxGeometry>
        </mxCell>
        <mxCell id="RVPW-4uMlvpxUktAm4jy-87" value="Invite v" style="edgeLabel;resizable=0;html=1;align=center;verticalAlign=middle;" parent="RVPW-4uMlvpxUktAm4jy-86" connectable="0" vertex="1">
          <mxGeometry relative="1" as="geometry" />
        </mxCell>
        <mxCell id="RVPW-4uMlvpxUktAm4jy-88" value="1" style="edgeLabel;resizable=0;html=1;align=right;verticalAlign=top;fontSize=14;" parent="RVPW-4uMlvpxUktAm4jy-86" connectable="0" vertex="1">
          <mxGeometry x="-1" relative="1" as="geometry">
            <mxPoint x="-2" as="offset" />
          </mxGeometry>
        </mxCell>
        <mxCell id="RVPW-4uMlvpxUktAm4jy-89" value="*" style="edgeLabel;resizable=0;html=1;align=right;verticalAlign=bottom;fontSize=14;" parent="RVPW-4uMlvpxUktAm4jy-86" connectable="0" vertex="1">
          <mxGeometry x="1" relative="1" as="geometry">
            <mxPoint x="-3" as="offset" />
          </mxGeometry>
        </mxCell>
        <mxCell id="RVPW-4uMlvpxUktAm4jy-5" value="Message" style="swimlane;fontStyle=0;childLayout=stackLayout;horizontal=1;startSize=26;fillColor=none;horizontalStack=0;resizeParent=1;resizeParentMax=0;resizeLast=0;collapsible=1;marginBottom=0;whiteSpace=wrap;html=1;" parent="1" vertex="1">
          <mxGeometry x="770" y="530" width="140" height="208" as="geometry" />
        </mxCell>
        <mxCell id="RVPW-4uMlvpxUktAm4jy-23" value="id" style="text;strokeColor=none;fillColor=none;align=left;verticalAlign=top;spacingLeft=4;spacingRight=4;overflow=hidden;rotatable=0;points=[[0,0.5],[1,0.5]];portConstraint=eastwest;whiteSpace=wrap;html=1;" parent="RVPW-4uMlvpxUktAm4jy-5" vertex="1">
          <mxGeometry y="26" width="140" height="26" as="geometry" />
        </mxCell>
        <mxCell id="RVPW-4uMlvpxUktAm4jy-91" value="chat_id" style="text;strokeColor=none;fillColor=none;align=left;verticalAlign=top;spacingLeft=4;spacingRight=4;overflow=hidden;rotatable=0;points=[[0,0.5],[1,0.5]];portConstraint=eastwest;whiteSpace=wrap;html=1;" parent="RVPW-4uMlvpxUktAm4jy-5" vertex="1">
          <mxGeometry y="52" width="140" height="26" as="geometry" />
        </mxCell>
        <mxCell id="RVPW-4uMlvpxUktAm4jy-6" value="to" style="text;strokeColor=none;fillColor=none;align=left;verticalAlign=top;spacingLeft=4;spacingRight=4;overflow=hidden;rotatable=0;points=[[0,0.5],[1,0.5]];portConstraint=eastwest;whiteSpace=wrap;html=1;" parent="RVPW-4uMlvpxUktAm4jy-5" vertex="1">
          <mxGeometry y="78" width="140" height="26" as="geometry" />
        </mxCell>
        <mxCell id="RVPW-4uMlvpxUktAm4jy-7" value="from&lt;span style=&quot;white-space: pre;&quot;&gt;&#x9;&lt;/span&gt;" style="text;strokeColor=none;fillColor=none;align=left;verticalAlign=top;spacingLeft=4;spacingRight=4;overflow=hidden;rotatable=0;points=[[0,0.5],[1,0.5]];portConstraint=eastwest;whiteSpace=wrap;html=1;" parent="RVPW-4uMlvpxUktAm4jy-5" vertex="1">
          <mxGeometry y="104" width="140" height="26" as="geometry" />
        </mxCell>
        <mxCell id="RVPW-4uMlvpxUktAm4jy-8" value="content" style="text;strokeColor=none;fillColor=none;align=left;verticalAlign=top;spacingLeft=4;spacingRight=4;overflow=hidden;rotatable=0;points=[[0,0.5],[1,0.5]];portConstraint=eastwest;whiteSpace=wrap;html=1;" parent="RVPW-4uMlvpxUktAm4jy-5" vertex="1">
          <mxGeometry y="130" width="140" height="26" as="geometry" />
        </mxCell>
        <mxCell id="RVPW-4uMlvpxUktAm4jy-21" value="attachment" style="text;strokeColor=none;fillColor=none;align=left;verticalAlign=top;spacingLeft=4;spacingRight=4;overflow=hidden;rotatable=0;points=[[0,0.5],[1,0.5]];portConstraint=eastwest;whiteSpace=wrap;html=1;" parent="RVPW-4uMlvpxUktAm4jy-5" vertex="1">
          <mxGeometry y="156" width="140" height="26" as="geometry" />
        </mxCell>
        <mxCell id="RVPW-4uMlvpxUktAm4jy-90" value="created_at" style="text;strokeColor=none;fillColor=none;align=left;verticalAlign=top;spacingLeft=4;spacingRight=4;overflow=hidden;rotatable=0;points=[[0,0.5],[1,0.5]];portConstraint=eastwest;whiteSpace=wrap;html=1;" parent="RVPW-4uMlvpxUktAm4jy-5" vertex="1">
          <mxGeometry y="182" width="140" height="26" as="geometry" />
        </mxCell>
        <mxCell id="RVPW-4uMlvpxUktAm4jy-9" value="Assistant" style="swimlane;fontStyle=0;childLayout=stackLayout;horizontal=1;startSize=26;fillColor=none;horizontalStack=0;resizeParent=1;resizeParentMax=0;resizeLast=0;collapsible=1;marginBottom=0;whiteSpace=wrap;html=1;" parent="1" vertex="1">
          <mxGeometry x="1000" y="436" width="140" height="78" as="geometry" />
        </mxCell>
        <mxCell id="RVPW-4uMlvpxUktAm4jy-11" value="name" style="text;strokeColor=none;fillColor=none;align=left;verticalAlign=top;spacingLeft=4;spacingRight=4;overflow=hidden;rotatable=0;points=[[0,0.5],[1,0.5]];portConstraint=eastwest;whiteSpace=wrap;html=1;" parent="RVPW-4uMlvpxUktAm4jy-9" vertex="1">
          <mxGeometry y="26" width="140" height="26" as="geometry" />
        </mxCell>
        <mxCell id="RVPW-4uMlvpxUktAm4jy-12" value="description" style="text;strokeColor=none;fillColor=none;align=left;verticalAlign=top;spacingLeft=4;spacingRight=4;overflow=hidden;rotatable=0;points=[[0,0.5],[1,0.5]];portConstraint=eastwest;whiteSpace=wrap;html=1;" parent="RVPW-4uMlvpxUktAm4jy-9" vertex="1">
          <mxGeometry y="52" width="140" height="26" as="geometry" />
        </mxCell>
        <mxCell id="RVPW-4uMlvpxUktAm4jy-17" value="Billing plan" style="swimlane;fontStyle=0;childLayout=stackLayout;horizontal=1;startSize=26;fillColor=none;horizontalStack=0;resizeParent=1;resizeParentMax=0;resizeLast=0;collapsible=1;marginBottom=0;whiteSpace=wrap;html=1;" parent="1" vertex="1">
          <mxGeometry x="390" y="340" width="140" height="52" as="geometry" />
        </mxCell>
        <mxCell id="RVPW-4uMlvpxUktAm4jy-18" value="type" style="text;strokeColor=none;fillColor=none;align=left;verticalAlign=top;spacingLeft=4;spacingRight=4;overflow=hidden;rotatable=0;points=[[0,0.5],[1,0.5]];portConstraint=eastwest;whiteSpace=wrap;html=1;" parent="RVPW-4uMlvpxUktAm4jy-17" vertex="1">
          <mxGeometry y="26" width="140" height="26" as="geometry" />
        </mxCell>
        <mxCell id="RVPW-4uMlvpxUktAm4jy-29" value="" style="endArrow=none;html=1;rounded=0;endFill=0;edgeStyle=orthogonalEdgeStyle;entryX=0;entryY=0.5;entryDx=0;entryDy=0;exitX=0.493;exitY=0.962;exitDx=0;exitDy=0;exitPerimeter=0;align=center;" parent="1" source="RVPW-4uMlvpxUktAm4jy-18" target="RVPW-4uMlvpxUktAm4jy-2" edge="1">
          <mxGeometry relative="1" as="geometry">
            <mxPoint x="370" y="474.5" as="sourcePoint" />
            <mxPoint x="530" y="474.5" as="targetPoint" />
            <Array as="points">
              <mxPoint x="459" y="440" />
              <mxPoint x="560" y="440" />
            </Array>
          </mxGeometry>
        </mxCell>
        <mxCell id="RVPW-4uMlvpxUktAm4jy-30" value="Choose &amp;lt;" style="edgeLabel;resizable=0;html=1;align=center;verticalAlign=middle;" parent="RVPW-4uMlvpxUktAm4jy-29" connectable="0" vertex="1">
          <mxGeometry relative="1" as="geometry" />
        </mxCell>
        <mxCell id="RVPW-4uMlvpxUktAm4jy-31" value="1" style="edgeLabel;resizable=0;html=1;align=left;verticalAlign=top;" parent="RVPW-4uMlvpxUktAm4jy-29" connectable="0" vertex="1">
          <mxGeometry x="-1" relative="1" as="geometry" />
        </mxCell>
        <mxCell id="RVPW-4uMlvpxUktAm4jy-32" value="*" style="edgeLabel;resizable=0;html=1;align=right;verticalAlign=bottom;fontSize=14;" parent="RVPW-4uMlvpxUktAm4jy-29" connectable="0" vertex="1">
          <mxGeometry x="1" relative="1" as="geometry">
            <mxPoint x="-3" as="offset" />
          </mxGeometry>
        </mxCell>
        <mxCell id="RVPW-4uMlvpxUktAm4jy-53" value="Chat" style="swimlane;fontStyle=0;childLayout=stackLayout;horizontal=1;startSize=26;fillColor=none;horizontalStack=0;resizeParent=1;resizeParentMax=0;resizeLast=0;collapsible=1;marginBottom=0;whiteSpace=wrap;html=1;" parent="1" vertex="1">
          <mxGeometry x="770" y="410" width="140" height="80" as="geometry" />
        </mxCell>
        <mxCell id="RVPW-4uMlvpxUktAm4jy-54" value="user.login" style="text;strokeColor=none;fillColor=none;align=left;verticalAlign=top;spacingLeft=4;spacingRight=4;overflow=hidden;rotatable=0;points=[[0,0.5],[1,0.5]];portConstraint=eastwest;whiteSpace=wrap;html=1;" parent="RVPW-4uMlvpxUktAm4jy-53" vertex="1">
          <mxGeometry y="26" width="140" height="26" as="geometry" />
        </mxCell>
        <mxCell id="RVPW-4uMlvpxUktAm4jy-55" value="assistant.name" style="text;strokeColor=none;fillColor=none;align=left;verticalAlign=top;spacingLeft=4;spacingRight=4;overflow=hidden;rotatable=0;points=[[0,0.5],[1,0.5]];portConstraint=eastwest;whiteSpace=wrap;html=1;" parent="RVPW-4uMlvpxUktAm4jy-53" vertex="1">
          <mxGeometry y="52" width="140" height="28" as="geometry" />
        </mxCell>
        <mxCell id="RVPW-4uMlvpxUktAm4jy-70" value="" style="endArrow=none;html=1;rounded=0;endFill=0;entryX=0.5;entryY=0;entryDx=0;entryDy=0;exitX=0.507;exitY=1;exitDx=0;exitDy=0;exitPerimeter=0;startArrow=diamondThin;startFill=1;strokeWidth=1;endSize=6;" parent="1" source="RVPW-4uMlvpxUktAm4jy-55" target="RVPW-4uMlvpxUktAm4jy-5" edge="1">
          <mxGeometry relative="1" as="geometry">
            <mxPoint x="910" y="530" as="sourcePoint" />
            <mxPoint x="890" y="570" as="targetPoint" />
          </mxGeometry>
        </mxCell>
        <mxCell id="RVPW-4uMlvpxUktAm4jy-72" value="1" style="edgeLabel;resizable=0;html=1;align=left;verticalAlign=top;fontSize=14;" parent="RVPW-4uMlvpxUktAm4jy-70" connectable="0" vertex="1">
          <mxGeometry x="-1" relative="1" as="geometry" />
        </mxCell>
        <mxCell id="RVPW-4uMlvpxUktAm4jy-73" value="*" style="edgeLabel;resizable=0;html=1;align=right;verticalAlign=bottom;fontSize=14;" parent="RVPW-4uMlvpxUktAm4jy-70" connectable="0" vertex="1">
          <mxGeometry x="1" relative="1" as="geometry">
            <mxPoint x="-2" y="1" as="offset" />
          </mxGeometry>
        </mxCell>
        <mxCell id="RVPW-4uMlvpxUktAm4jy-74" value="" style="endArrow=diamondThin;html=1;rounded=0;endFill=0;edgeStyle=orthogonalEdgeStyle;entryX=0;entryY=0.5;entryDx=0;entryDy=0;exitX=1;exitY=0.5;exitDx=0;exitDy=0;" parent="1" source="RVPW-4uMlvpxUktAm4jy-2" target="RVPW-4uMlvpxUktAm4jy-54" edge="1">
          <mxGeometry relative="1" as="geometry">
            <mxPoint x="640" y="500" as="sourcePoint" />
            <mxPoint x="800" y="500" as="targetPoint" />
          </mxGeometry>
        </mxCell>
        <mxCell id="RVPW-4uMlvpxUktAm4jy-76" value="1" style="edgeLabel;resizable=0;html=1;align=left;verticalAlign=bottom;fontSize=14;" parent="RVPW-4uMlvpxUktAm4jy-74" connectable="0" vertex="1">
          <mxGeometry x="-1" relative="1" as="geometry" />
        </mxCell>
        <mxCell id="RVPW-4uMlvpxUktAm4jy-77" value="*" style="edgeLabel;resizable=0;html=1;align=right;verticalAlign=bottom;fontSize=14;" parent="RVPW-4uMlvpxUktAm4jy-74" connectable="0" vertex="1">
          <mxGeometry x="1" relative="1" as="geometry">
            <mxPoint x="-2" y="-2" as="offset" />
          </mxGeometry>
        </mxCell>
        <mxCell id="RVPW-4uMlvpxUktAm4jy-78" value="" style="endArrow=none;html=1;rounded=0;endFill=0;edgeStyle=orthogonalEdgeStyle;entryX=0;entryY=0.5;entryDx=0;entryDy=0;exitX=1;exitY=0.5;exitDx=0;exitDy=0;startArrow=diamondThin;startFill=0;" parent="1" source="RVPW-4uMlvpxUktAm4jy-55" target="RVPW-4uMlvpxUktAm4jy-11" edge="1">
          <mxGeometry relative="1" as="geometry">
            <mxPoint x="990" y="480" as="sourcePoint" />
            <mxPoint x="1150" y="480" as="targetPoint" />
          </mxGeometry>
        </mxCell>
        <mxCell id="RVPW-4uMlvpxUktAm4jy-80" value="*" style="edgeLabel;resizable=0;html=1;align=left;verticalAlign=bottom;fontSize=14;" parent="RVPW-4uMlvpxUktAm4jy-78" connectable="0" vertex="1">
          <mxGeometry x="-1" relative="1" as="geometry">
            <mxPoint x="2" y="-2" as="offset" />
          </mxGeometry>
        </mxCell>
        <mxCell id="RVPW-4uMlvpxUktAm4jy-81" value="1" style="edgeLabel;resizable=0;html=1;align=right;verticalAlign=bottom;fontSize=14;" parent="RVPW-4uMlvpxUktAm4jy-78" connectable="0" vertex="1">
          <mxGeometry x="1" relative="1" as="geometry">
            <mxPoint x="-2" as="offset" />
          </mxGeometry>
        </mxCell>
        <mxCell id="uMfRbcCPlGdd2aufogp0-1" value="OpenAI" style="swimlane;fontStyle=0;childLayout=stackLayout;horizontal=1;startSize=26;fillColor=none;horizontalStack=0;resizeParent=1;resizeParentMax=0;resizeLast=0;collapsible=1;marginBottom=0;whiteSpace=wrap;html=1;" parent="1" vertex="1">
          <mxGeometry x="1000" y="320" width="140" height="52" as="geometry" />
        </mxCell>
        <mxCell id="uMfRbcCPlGdd2aufogp0-5" value="" style="endArrow=none;html=1;rounded=0;entryX=0.5;entryY=1;entryDx=0;entryDy=0;exitX=0.5;exitY=0;exitDx=0;exitDy=0;endFill=0;" parent="1" source="RVPW-4uMlvpxUktAm4jy-9" target="uMfRbcCPlGdd2aufogp0-1" edge="1">
          <mxGeometry relative="1" as="geometry">
            <mxPoint x="520" y="440" as="sourcePoint" />
            <mxPoint x="680" y="440" as="targetPoint" />
          </mxGeometry>
        </mxCell>
        <mxCell id="uMfRbcCPlGdd2aufogp0-6" value="Provide v" style="edgeLabel;resizable=0;html=1;align=center;verticalAlign=middle;" parent="uMfRbcCPlGdd2aufogp0-5" connectable="0" vertex="1">
          <mxGeometry relative="1" as="geometry" />
        </mxCell>
        <mxCell id="uMfRbcCPlGdd2aufogp0-7" value="*" style="edgeLabel;resizable=0;html=1;align=left;verticalAlign=bottom;fontSize=14;" parent="uMfRbcCPlGdd2aufogp0-5" connectable="0" vertex="1">
          <mxGeometry x="-1" relative="1" as="geometry">
            <mxPoint x="2" as="offset" />
          </mxGeometry>
        </mxCell>
        <mxCell id="uMfRbcCPlGdd2aufogp0-8" value="1" style="edgeLabel;resizable=0;html=1;align=right;verticalAlign=top;fontSize=14;" parent="uMfRbcCPlGdd2aufogp0-5" connectable="0" vertex="1">
          <mxGeometry x="1" relative="1" as="geometry">
            <mxPoint x="-4" y="-3" as="offset" />
          </mxGeometry>
        </mxCell>
      </root>
    </mxGraphModel>
  </diagram>
</mxfile>
